<svg xmlns="http://www.w3.org/2000/svg" viewBox="0 0 1024 1024">
  <path d="M512.844536 512m-501.443299 0a501.443299 501.443299 0 1 0 1002.886598 0 501.443299 501.443299 0 1 0-1002.886598 0Z" fill="#F3BA4C"></path>
  <path d="M541.347629 462.383505a137.237113 137.237113 0 1 0-43.599175 0c-272.574021 48.877526-281.547216 291.048247-281.652784 293.581856h11.717938c0-2.428041 592.336495-0.950103 592.336495-0.950103-29.769897-213.878763-217.573608-277.430103-278.802474-292.631753z" fill="#FFFFFF"></path>
  <path d="M512 1024A512 512 0 1 1 1024 512 512.527835 512.527835 0 0 1 512 1024z m0-1002.886598A490.886598 490.886598 0 1 0 1002.886598 512 491.414433 491.414433 0 0 0 512 21.113402z" fill="#DBA02E"></path>
</svg>